<svg xmlns="http://www.w3.org/2000/svg" xmlns:svg="http://www.w3.org/2000/svg" id="Capa_1" width="113.773" height="68.699" x="0" y="0" version="1.1" viewBox="0 0 113.773 68.699" xml:space="preserve"><metadata id="metadata144"/><g id="layer2" transform="translate(-9.2897778,8.394288)"><g id="g105" fill="#501616" transform="translate(2.3898322,0.30945567)"><path id="path97" fill="#501616" d="m 18.323,21.065 1.66,0.423 c 1.154,0.294 2.333,-0.403 2.627,-1.559 0.044,-0.172 0.058,-0.342 0.061,-0.511 1.472,-0.601 2.508,-2.043 2.508,-3.731 0,-2.226 -1.805,-4.031 -4.031,-4.031 -2.226,0 -4.031,1.805 -4.031,4.031 0,0.584 0.127,1.138 0.351,1.638 -0.334,0.28 -0.589,0.66 -0.705,1.114 -0.294,1.156 0.405,2.333 1.56,2.626 z"/><path id="path99" fill="#501616" d="m 17.747,26.898 c 0.583,-0.202 1.723,-1.078 2.831,-4.631 -0.021,0 -0.041,0.004 -0.061,0.004 -0.234,0 -0.471,-0.029 -0.699,-0.088 l -1.66,-0.422 c -0.732,-0.186 -1.349,-0.647 -1.735,-1.298 -0.386,-0.649 -0.496,-1.411 -0.311,-2.144 0.106,-0.411 0.3,-0.789 0.572,-1.111 -0.158,-0.476 -0.238,-0.969 -0.238,-1.474 0,-0.282 0.03,-0.555 0.076,-0.822 -1.104,0.736 -2.144,1.577 -2.69,2.41 -1.915,2.926 0.084,6.34 1.762,8.839 0.417,0.573 1.45,1.048 2.153,0.737 z"/><circle id="circle101" cx="24.4" cy="5.388" r="5.388" fill="#501616"/><path id="path103" fill="#501616" d="m 50.616,12.889 c -1.557,-0.652 -3.287,-0.251 -4.41,0.873 -0.156,-0.064 -0.318,-0.115 -0.493,-0.141 -0.657,-0.097 -1.284,0.121 -1.745,0.531 -0.291,-0.109 -0.613,-0.181 -0.981,-0.181 -4.722,0 -9.44,0 -14.161,0 -0.201,0 -0.388,0.022 -0.566,0.057 -0.952,-1.635 -2.963,-2.551 -4.91,-2.447 1.485,0.791 2.501,2.355 2.501,4.152 0,1.776 -0.984,3.372 -2.544,4.175 -0.012,0.079 -0.026,0.156 -0.046,0.23 -0.285,1.121 -2.002,2.199 -2.002,2.199 -0.928,3.035 -2.044,4.785 -3.321,5.203 -0.204,0.066 -0.394,0.093 -0.563,0.093 -0.313,0 -0.546,-0.085 -0.697,-0.157 -0.137,1.956 -0.21,3.917 -0.221,5.88 -0.001,0.199 0.008,0.395 0.025,0.58 -3.326,7.008 -6.985,13.86 -9.399,21.258 -1.346,4.121 5.128,5.871 6.462,1.781 2.095,-6.414 5.218,-12.381 8.144,-18.441 5.118,4.533 6.716,11.309 6.947,18.222 0.144,4.312 6.848,4.325 6.703,0 -0.292,-8.733 -2.62,-17.063 -8.849,-22.87 0.012,-0.148 0.023,-0.3 0.024,-0.455 0.028,-4.842 0.374,-9.537 1.625,-14.184 0.213,0.052 0.438,0.086 0.688,0.086 4.72,0 9.44,0 14.161,0 0.33,0 0.617,-0.062 0.885,-0.149 0.275,0.203 0.596,0.351 0.959,0.405 0.463,0.068 0.912,-0.02 1.3,-0.22 0.376,0.4 0.837,0.73 1.374,0.956 2.055,0.86 4.416,-0.107 5.275,-2.162 0.859,-2.055 -0.111,-4.416 -2.165,-5.274 z"/></g><text id="text302" x="62.77" y="22.237" fill="#d45500" fill-opacity="1" stroke="none" font-family="sans-serif" font-size="14.667" font-style="normal" font-weight="normal" letter-spacing="0" word-spacing="0" xml:space="preserve" style="line-height:1.25"><tspan id="tspan308" x="62.77" y="22.237" fill="#d45500" font-family="Purisa" font-size="13.333" font-stretch="normal" font-style="italic" font-variant="normal" font-weight="normal" style="-inkscape-font-specification:Purisa">The</tspan></text><text id="text306" x="50.036" y="55.122" fill="#d45500" fill-opacity="1" stroke="none" font-family="sans-serif" font-size="14.667" font-style="normal" font-weight="normal" letter-spacing="0" word-spacing="0" xml:space="preserve" style="line-height:1.25"><tspan id="tspan304" x="50.036" y="55.122" fill="#d45500" font-family="Purisa" font-size="13.333" font-stretch="normal" font-style="italic" font-variant="normal" font-weight="normal" style="-inkscape-font-specification:Purisa">Project</tspan></text><text id="text314" x="35.773" y="39.372" fill="#d45500" fill-opacity="1" stroke="none" font-family="sans-serif" font-size="14.667" font-style="normal" font-weight="normal" letter-spacing="0" word-spacing="0" xml:space="preserve" style="line-height:1.25"><tspan id="tspan312" x="35.773" y="39.372" fill="#d45500" font-family="Purisa" font-size="16" font-stretch="normal" font-style="normal" font-variant="normal" font-weight="normal" style="-inkscape-font-specification:Purisa">CHEROCKY</tspan></text></g><g id="layer1" display="inline" opacity="1" transform="translate(-9.2897778,8.394288)"><path id="path198" fill="#c83737" stroke-width=".042" d="m 20.629926,4.8790602 v 0.259196 l -0.330912,0.331075 h -0.259196 c -0.173561,0 -0.314375,0.14065 -0.314375,0.314375 0,0.173561 0.140814,0.314375 0.314375,0.314375 h 0.259196 l 0.330912,0.330912 v 0.259195 c 0,0.173725 0.140813,0.314375 0.314374,0.314375 0.173725,0 0.314375,-0.14065 0.314375,-0.314375 v -0.259195 l 0.331076,-0.330912 h 0.259195 c 0.173561,0 0.314375,-0.140814 0.314375,-0.314375 0,-0.173725 -0.140814,-0.314375 -0.314375,-0.314375 h -0.259195 l -0.331076,-0.331075 v -0.259196 c 0,-0.173561 -0.14065,-0.314375 -0.314375,-0.314375 -0.173561,0 -0.314374,0.140814 -0.314374,0.314375 z m 0.314374,0.834075 0.07057,0.07057 -0.07057,0.07057 -0.07041,-0.07057 z m 0,0"/><path id="path196" fill="#c83737" stroke-width=".042" d="m 29.901127,-0.855845 h -0.125913 c 0.278516,-0.598295 0.47369,-1.229991 0.580774,-1.883137 0.06468,-0.389203 0.09742,-0.790194 0.09742,-1.19184 0,-0.464849 -0.04421,-0.930517 -0.131154,-1.38374 -0.192227,-1.000923 -0.585031,-1.933568 -1.167934,-2.772555 -0.133937,-0.192391 -0.353508,-0.307171 -0.587488,-0.307171 -0.233816,0 -0.453387,0.11478 -0.587487,0.307498 -0.468124,0.673777 -0.813445,1.4083 -1.031051,2.190144 -0.491538,-0.728957 -1.105715,-1.355905 -1.830414,-1.867255 -0.191572,-0.135083 -0.437341,-0.16783 -0.657075,-0.08793 -0.219734,0.08007 -0.38691,0.263125 -0.447001,0.490065 -0.204343,0.774311 -0.278844,1.563031 -0.223664,2.352733 -0.713402,-0.5197 -1.507525,-0.900715 -2.366652,-1.134368 -0.226121,-0.06124 -0.468287,-0.008 -0.647416,0.142287 -0.179291,0.150311 -0.273604,0.379542 -0.252482,0.613358 0.06893,0.757119 0.252319,1.486403 0.546063,2.177208 -0.931172,-0.307497 -1.899511,-0.422277 -2.880949,-0.340081 -0.233653,0.01965 -0.442908,0.152439 -0.559817,0.354981 -0.116907,0.202543 -0.127223,0.450276 -0.02751,0.662643 0.331567,0.704232 0.765797,1.340022 1.294831,1.898037 -0.01752,1.58e-4 -0.03504,-1.57e-4 -0.0524,1.58e-4 -8.16e-4,0 -0.0015,0 -0.0023,0 -1.01828,0.01588 -2.004466,0.240857 -2.931053,0.668701 -0.212858,0.09857 -0.363987,0.29489 -0.404757,0.525267 -0.04061,0.230378 0.03439,0.466487 0.200905,0.632025 0.553758,0.549827 1.181197,0.999449 1.871184,1.343296 -0.161117,0.04896 -0.320433,0.103154 -0.476802,0.162754 -0.952293,0.363168 -1.802578,0.912014 -2.527604,1.631637 -0.166193,0.165375 -0.241185,0.401647 -0.200578,0.63186 0.04061,0.230378 0.191899,0.426698 0.404921,0.525432 0.927078,0.428008 1.913756,0.652982 2.933017,0.668537 0.03586,6.56e-4 0.07188,8.19e-4 0.107903,8.19e-4 0.426043,0 0.855197,-0.0375 1.277474,-0.111996 0.0203,-0.0036 0.04077,-0.0079 0.06124,-0.01163 0.0352,0.396244 0.179292,0.761704 0.401974,1.066091 -0.531654,0.633989 -0.909558,1.364419 -1.123726,2.174097 -0.281627,1.064125 -0.247406,2.175898 0.09857,3.214972 0.07679,0.230214 0.262142,0.404757 0.495958,0.46665 0.06075,0.01605 0.122148,0.02391 0.183222,0.02391 0.174543,0 0.344993,-0.06402 0.478602,-0.184367 0.433903,-0.389857 0.800346,-0.841771 1.091306,-1.339531 0.15162,0.452896 0.360876,0.884179 0.62613,1.288936 0.133118,0.203034 0.356946,0.324363 0.598785,0.324363 0.241839,0 0.465668,-0.121329 0.598786,-0.324363 0.600259,-0.915943 0.917581,-1.982034 0.917581,-3.082673 0,-0.0984 -0.0033,-0.204343 -0.01,-0.324035 -0.0098,-0.173397 -0.158661,-0.306024 -0.331731,-0.296036 -0.173397,0.0098 -0.30586,0.158334 -0.296036,0.331731 0.0061,0.107575 0.009,0.201887 0.009,0.28834 0,0.215642 -0.01457,0.429646 -0.04159,0.641193 -0.27082,-0.09431 -0.55736,-0.143269 -0.846191,-0.143269 -0.237255,0 -0.473036,0.03373 -0.699975,0.09791 0.02112,-0.06877 0.04093,-0.138193 0.05944,-0.207945 0.182239,-0.688841 0.233161,-1.38947 0.151948,-2.087153 0.02325,-0.0026 0.04634,-0.0054 0.06942,-0.0088 l 0.295709,0.999122 c 0.04044,0.13672 0.165702,0.225302 0.301275,0.225302 0.02964,0 0.0596,-0.0043 0.0894,-0.0131 0.16652,-0.04929 0.261488,-0.224156 0.212203,-0.390677 L 22.190926,7.770326 c 0.09366,-0.04437 0.183548,-0.0953 0.269183,-0.152275 0.0691,0.154567 0.131317,0.312573 0.184368,0.473035 0.04355,0.132299 0.16652,0.216133 0.298492,0.216133 0.03258,0 0.06582,-0.0052 0.09857,-0.01588 0.164883,-0.05436 0.254447,-0.23218 0.200086,-0.397062 -0.08154,-0.246916 -0.180601,-0.488755 -0.295217,-0.721752 0.292598,-0.365133 0.468287,-0.828017 0.468287,-1.33118 0,-0.245442 -0.04224,-0.481059 -0.118873,-0.70063 C 23.801114,4.334966 24.456388,3.648254 25.245599,3.098589 25.680811,2.795677 26.149426,2.542212 26.638345,2.345564 26.799462,2.280724 26.877564,2.097503 26.812724,1.93655 26.747884,1.775433 26.564663,1.697494 26.403709,1.76217 25.87091,1.976501 25.360379,2.252725 24.886361,2.582655 24.122693,3.114308 23.474296,3.764344 22.952958,4.518515 22.902688,4.454985 22.849312,4.394239 22.792168,4.336931 23.301717,3.505312 23.969599,2.79846 24.780259,2.234059 25.963258,1.4103 27.353874,0.97476 28.801799,0.97476 c 0.173724,0 0.314374,-0.14065 0.314374,-0.314375 0,-0.17356 -0.14065,-0.314374 -0.314374,-0.314374 -1.576949,0 -3.091843,0.474509 -4.380779,1.37195 -0.866986,0.603698 -1.583662,1.357378 -2.134799,2.242376 -0.172088,-0.09235 -0.358093,-0.161445 -0.55425,-0.203853 0.625475,-0.919218 1.408464,-1.710231 2.332758,-2.353716 1.531266,-1.066254 3.330242,-1.629836 5.202572,-1.629836 h 0.633989 c 0.04683,0 0.08482,0.03815 0.08482,0.08482 v 1.26794 c 0,0.04683 -0.03799,0.08498 -0.08482,0.08498 h -0.633989 c -0.502672,0 -1.005999,0.04912 -1.496554,0.145726 -0.170286,0.03373 -0.281136,0.19894 -0.24757,0.36939 0.03357,0.170286 0.199104,0.2813 0.36939,0.24757 0.45044,-0.08891 0.912833,-0.133937 1.374734,-0.133937 h 0.633989 c 0.39346,0 0.713565,-0.320105 0.713565,-0.713728 v -1.267977 c 0,-0.39346 -0.320105,-0.713565 -0.713729,-0.713565 z m -1.770977,0.06566 c 0.111505,-0.785118 0.09366,-1.577441 -0.05387,-2.35912 -0.0095,-0.05141 -0.01981,-0.102827 -0.03062,-0.15424 l 0.521338,-0.521175 1.140754,1.140755 c -0.12051,0.638737 -0.333696,1.253241 -0.634316,1.830086 -0.316831,0.0061 -0.631533,0.02751 -0.943288,0.06369 z m -1.468392,0.286375 c -0.03504,-0.179619 -0.0763,-0.358583 -0.124603,-0.534928 -0.04601,-0.167503 -0.218752,-0.265909 -0.386419,-0.220062 -0.167339,0.04601 -0.265909,0.218916 -0.219899,0.386419 0.05027,0.183548 0.093,0.370209 0.127388,0.557196 -0.322398,0.112487 -0.639229,0.242003 -0.948855,0.388547 C 24.719513,-0.60418 24.228303,-1.207551 23.6454,-1.72545 l 0.06795,-0.77513 1.606912,0.140486 c 0.04863,0.08711 0.09644,0.177 0.144416,0.272458 0.05502,0.109867 0.166029,0.173397 0.281136,0.173397 0.04732,0 0.09546,-0.01064 0.14065,-0.0334 0.155222,-0.07778 0.217934,-0.266727 0.140158,-0.421949 -0.07925,-0.157679 -0.161608,-0.309135 -0.244786,-0.449294 -0.01899,-0.03209 -0.03848,-0.06386 -0.05796,-0.09579 l 0.299802,-0.643158 1.462497,0.681963 c 0.118873,0.725191 0.11609,1.458568 -0.008,2.184086 -0.275078,0.05092 -0.547536,0.113633 -0.816392,0.18797 z m -7.236674,2.123175 0.419003,0.598458 c -0.07073,-0.0011 -0.141633,-0.0018 -0.212531,-9.8e-4 -0.333532,0.0034 -0.671321,0.03095 -1.006653,0.08138 -0.0098,-0.0048 -0.01998,-0.009 -0.03045,-0.01277 -0.01588,-0.0056 -0.0316,-0.01163 -0.04748,-0.01752 l -0.936738,-1.337735 1.337729,-0.936574 c 0.39084,-3.34e-4 0.784463,0.03373 1.171864,0.102008 0.150966,0.02669 0.300785,0.05862 0.448967,0.0953 l -1.017461,0.712419 c -0.112487,0.07876 -0.187642,0.196648 -0.211384,0.331894 -0.02391,0.135083 0.0064,0.27164 0.08514,0.384126 z m 3.360698,4.221789 c 0,0.829655 -0.674759,1.504414 -1.504414,1.504414 -0.82949,0 -1.50425,-0.674759 -1.50425,-1.504414 0,-0.82949 0.67476,-1.50425 1.50425,-1.50425 0.829655,0 1.504414,0.67476 1.504414,1.50425 z M 19.529221,4.626882 18.872964,4.167273 19.79824,2.845753 c 0.558016,0.0069 1.109645,0.08367 1.646865,0.229068 -0.156533,0.210729 -0.305205,0.428171 -0.4452,0.652327 -0.608119,0.08072 -1.135842,0.41802 -1.470684,0.899734 z m 1.783421,-6.115405 c -0.273768,0.07335 -0.43685,0.3558 -0.363496,0.629568 l 0.145399,0.542623 c -0.282119,-0.08596 -0.572097,-0.155386 -0.865349,-0.207127 -0.110686,-0.01965 -0.222028,-0.03651 -0.333532,-0.05092 l -0.416056,-1.552715 1.577277,-0.422605 c 0.367426,0.133281 0.725682,0.299966 1.066418,0.496613 0.132791,0.07663 0.262634,0.158007 0.389202,0.242986 z m 2.463748,-2.733259 c 0.299474,0.251009 0.5793,0.53018 0.832109,0.831456 0.09857,0.117399 0.192718,0.238237 0.28261,0.361531 l -1.237358,-0.10823 c -0.28261,-0.02456 -0.532145,0.184858 -0.556869,0.467304 l -0.04126,0.471399 c -0.198287,-0.142615 -0.404923,-0.276225 -0.617944,-0.399191 -0.138358,-0.0799 -0.279499,-0.155058 -0.422769,-0.225793 l 0.134755,-1.540763 z m 5.945118,-0.880904 c 0.06812,0.384782 0.10299,0.778569 0.10299,1.171865 0,0.153257 -0.0054,0.306351 -0.01588,0.458626 l -0.878284,-0.878284 c -0.200414,-0.200414 -0.526578,-0.200414 -0.726991,0 l -0.343029,0.343029 c -0.03127,-0.0989 -0.06468,-0.197467 -0.100207,-0.295218 -0.09972,-0.273604 -0.215805,-0.541805 -0.346631,-0.801328 l 1.153362,-1.153362 z m -3.049761,-0.05092 c 0.195501,0.338444 0.363004,0.696373 0.497596,1.066091 0.0524,0.143925 0.09955,0.28965 0.141796,0.436358 l -1.125691,-0.52494 c -0.256739,-0.119855 -0.563255,-0.0084 -0.68311,0.248553 l -0.191244,0.410161 c -0.07139,-0.09398 -0.144907,-0.186497 -0.220881,-0.277043 -0.178637,-0.213022 -0.369882,-0.415728 -0.571114,-0.606809 l 0.67263,-1.442357 z m 1.8237,-2.574269 c 0.02178,-0.03111 0.05092,-0.03766 0.07155,-0.03766 0.02063,0 0.04961,0.0065 0.07123,0.0375 0.304223,0.437832 0.551466,0.903827 0.740582,1.3934 l -0.448311,-0.448311 c -0.0971,-0.0971 -0.226285,-0.150638 -0.363496,-0.150638 -0.137376,0 -0.266564,0.05338 -0.363496,0.150474 l -0.448475,0.448475 c 0.189116,-0.489573 0.436359,-0.955404 0.740418,-1.393236 z m -3.873849,0.526905 c 0.0098,-0.03684 0.03488,-0.05289 0.0542,-0.05993 0.01932,-0.007 0.04896,-0.01081 0.0799,0.01081 0.435539,0.307497 0.827198,0.660678 1.172355,1.056102 l -0.574552,-0.268037 c -0.256904,-0.119692 -0.563419,-0.0082 -0.683111,0.248716 l -0.268037,0.574553 c 0.01032,-0.524613 0.08334,-1.046933 0.219245,-1.562214 z m -3.441419,1.681577 c 0.01572,-0.01326 0.04241,-0.02702 0.07859,-0.01719 0.514461,0.139995 1.003542,0.337952 1.462988,0.591417 l -0.631533,-0.05518 c -0.136884,-0.01212 -0.270002,0.02996 -0.375284,0.118218 -0.105283,0.08825 -0.169796,0.212203 -0.181585,0.348923 l -0.05534,0.631697 c -0.169795,-0.49645 -0.279826,-1.012385 -0.328292,-1.54322 -0.0034,-0.03782 0.01474,-0.06157 0.03045,-0.07466 z m -3.006699,2.638127 c 0.01032,-0.01785 0.03045,-0.03979 0.06811,-0.0429 0.531162,-0.04454 1.058394,-0.02571 1.576949,0.05534 l -0.61254,0.164064 c -0.132626,0.03553 -0.243476,0.120511 -0.312082,0.239547 -0.06861,0.118873 -0.08694,0.257394 -0.05141,0.390021 l 0.164228,0.612376 c -0.329437,-0.40836 -0.609263,-0.855525 -0.836366,-1.33773 -0.01605,-0.03438 -0.0072,-0.06287 0.0031,-0.08072 z m -2.048511,3.54965 c 0.0036,-0.0203 0.01523,-0.04781 0.04928,-0.06369 0.484006,-0.223501 0.986023,-0.386092 1.500811,-0.487445 l -0.519368,0.36366 C 16.923513,0.6435 16.866861,0.964751 17.029451,1.19693 l 0.36366,0.519373 C 16.94398,1.445155 16.528089,1.120628 16.149693,0.74518 16.122843,0.71833 16.121533,0.68853 16.124973,0.66839 Z m -1.132895,4.183311 c -0.0036,-0.0203 -0.0023,-0.0501 0.0244,-0.07663 0.378396,-0.375611 0.794451,-0.700138 1.243581,-0.971286 l -0.363659,0.519373 c -0.162427,0.232179 -0.105774,0.553267 0.126241,0.715857 l 0.519536,0.36366 c -0.514955,-0.101189 -1.016644,-0.26378 -1.50065,-0.487117 -0.03439,-0.01605 -0.04601,-0.04355 -0.04945,-0.06386 z m 3.994851,0.572588 C 18.599523,5.492723 18.2059,5.526618 17.814897,5.526454 L 16.477331,4.589879 17.413905,3.25215 c 0.367098,-0.133773 0.748769,-0.2366 1.13617,-0.304878 0.150965,-0.02669 0.302749,-0.04781 0.454533,-0.06402 l -0.712582,1.01746 c -0.162591,0.232179 -0.105938,0.553267 0.126241,0.715857 l 0.82949,0.580939 c -0.01916,0.06075 -0.03553,0.122802 -0.04945,0.185677 -0.07024,0.01474 -0.140977,0.02865 -0.211384,0.0411 z m 1.016478,2.123829 c 0.04601,0.03438 0.09366,0.06664 0.142287,0.09742 L 19.840812,9.09591 c -0.0357,0.169959 0.07303,0.336643 0.242985,0.372337 0.02178,0.0046 0.04355,0.0067 0.065,0.0067 0.145398,0 0.27606,-0.101517 0.307334,-0.249698 l 0.278025,-1.32234 c 0.04863,0.01294 0.09808,0.0239 0.148018,0.0334 0.08874,0.651345 0.04781,1.30662 -0.122475,1.95076 -0.05534,0.208601 -0.124113,0.412126 -0.204507,0.60992 -0.23791,-0.160462 -0.502017,-0.281791 -0.781189,-0.3558 -0.279007,-0.07385 -0.568657,-0.09857 -0.854706,-0.07663 0.028,-0.211875 0.06877,-0.422768 0.123949,-0.631697 0.18535,-0.699811 0.508239,-1.332654 0.960153,-1.884774 z m -0.73174,4.777512 c -0.02947,0.02669 -0.06026,0.02571 -0.08072,0.0203 -0.02047,-0.0056 -0.04765,-0.01998 -0.06026,-0.05747 -0.171596,-0.51528 -0.256576,-1.050535 -0.254775,-1.587592 0.245441,-0.03078 0.49645,-0.01556 0.737307,0.0483 0.24102,0.06369 0.467469,0.173725 0.665754,0.321579 -0.264108,0.467959 -0.603043,0.89171 -1.007309,1.254878 z m 3.462051,-1.397984 c -0.135738,0.519864 -0.354818,1.015987 -0.652655,1.470356 -0.02178,0.03324 -0.05158,0.04028 -0.07286,0.04028 -0.02129,0 -0.05125,-0.007 -0.07303,-0.04028 -0.298166,-0.455025 -0.517081,-0.947872 -0.652819,-1.469374 0.229559,-0.09267 0.47631,-0.14196 0.725681,-0.14196 0.249372,0 0.496122,0.04863 0.725683,0.140978 z M 21.868856,2.543333 C 21.470648,2.419548 21.064417,2.330476 20.653274,2.277097 L 20.006022,1.35264 21.327706,0.427199 c 0.619253,0.233816 1.195278,0.556542 1.717435,0.961954 -0.425879,0.352689 -0.819011,0.737634 -1.176285,1.15418 z m 1.836472,-1.656688 c -0.04994,0.03488 -0.09906,0.07057 -0.148346,0.106101 -0.53067,-0.431119 -1.114392,-0.781843 -1.741341,-1.047097 l -0.229395,-0.856507 1.558611,-0.417692 c 0.561126,0.482532 1.032197,1.049716 1.404206,1.689436 -0.28834,0.160134 -0.570131,0.335332 -0.843735,0.525759 z m 0,0"/></g></svg>